<svg xmlns="http://www.w3.org/2000/svg" viewBox="0 0 12 20">
  <path d="M11.41.59A2 2 0 0 0 10 0H2A2 2 0 0 0 .59.59 2 2 0 0 0 0 2v16a2 2 0 0 0 .59 1.41A2 2 0 0 0 2 20h8a2 2 0 0 0 2-2V2a2 2 0 0 0-.59-1.41zM4.75 2h2.5a.22.22 0 0 1 .25.25.22.22 0 0 1-.25.25h-2.5a.22.22 0 0 1-.25-.25.22.22 0 0 1 .25-.25zm2.13 16.88a1.23 1.23 0 0 1-1.76 0A1.25 1.25 0 0 1 6 16.75a1.24 1.24 0 0 1 .88 2.13zm3.47-3A.47.47 0 0 1 10 16H2a.47.47 0 0 1-.35-.15.47.47 0 0 1-.15-.35v-11a.47.47 0 0 1 .15-.35A.47.47 0 0 1 2 4h8a.51.51 0 0 1 .5.5v11a.47.47 0 0 1-.15.35z"/>
</svg>