<svg viewBox="0 0 22.06 22" xmlns="http://www.w3.org/2000/svg"><path d="M11 0a11 11 0 0 0-8.91 17.45L.72 21.53 5 20.18A11 11 0 1 0 11 0zm6.4 15.53a3.1 3.1 0 0 1-2.16 1.56c-.57.12-1.32.22-3.85-.83a13.67 13.67 0 0 1-5.47-4.84A6.23 6.23 0 0 1 4.61 8.1a3.51 3.51 0 0 1 1.12-2.67A1.57 1.57 0 0 1 6.86 5h.37c.32 0 .48 0 .7.55L8.91 8a.62.62 0 0 1 .09.56 1.82 1.82 0 0 1-.36.51c-.16.18-.31.33-.47.53s-.32.36-.13.68a9.59 9.59 0 0 0 1.74 2.22 8.37 8.37 0 0 0 2.58 1.59.72.72 0 0 0 .78-.12c.24-.27.55-.71.86-1.14a.61.61 0 0 1 .79-.24c.29.1 1.86.88 2.19 1a1.13 1.13 0 0 1 .61.38 2.61 2.61 0 0 1-.19 1.56z"></path></svg>