<svg width="54" height="73" viewBox="0 0 54 73" fill="none" xmlns="http://www.w3.org/2000/svg">
<path d="M53.9972 67.1239H34.5707C29.7364 67.1239 26.9958 72.9972 26.9958 72.9972C26.9958 72.9972 24.4393 67.4259 20.196 67.1854C20.196 67.1854 17.8987 67.1295 17.8876 67.1239H0V0H53.9972V67.1239Z" fill="white"/>
<path d="M18.9582 40.1121C18.9725 39.766 19.062 39.4273 19.2204 39.1195C19.3788 38.8118 19.6024 38.5425 19.8754 38.3305C20.1407 38.108 20.4533 37.9495 20.7892 37.8671C21.1251 37.7847 21.4753 37.7806 21.8131 37.855C22.0668 37.9138 22.3957 37.9949 22.7247 38.0788C22.8413 37.2321 22.6265 36.3731 22.1253 35.6819C21.6327 35.0269 20.9226 34.5706 20.1235 34.3954L15.7102 40.6602H18.9582V40.1121ZM37.8048 11.1369C37.8048 11.1369 38.2955 12.3759 39.366 12.0235C39.7396 11.9005 40.0407 11.5285 39.9236 10.9048C39.8684 10.7078 39.7985 10.5152 39.7145 10.3287L37.8048 11.1369ZM31.6713 12.0431C32.6861 12.3759 33.2158 11.1369 33.2158 11.1369L31.2949 10.3231C31.194 10.5324 31.1253 10.7559 31.0914 10.9859C31.0411 11.2028 31.0725 11.4308 31.1796 11.6259C31.2866 11.821 31.4617 11.9696 31.6713 12.0431V12.0431ZM18.3393 31.7999L12.5208 40.6602H14.1489L19.6524 32.8683L20.3689 32.1327C19.6682 32.0358 18.9916 31.9248 18.3393 31.7999V31.7999ZM1.18494 1.19421V40.6602H7.80634L13.3823 31.6265L14.1127 30.8182C12.7438 30.435 11.8823 30.1274 11.7625 30.0882L11.071 29.8393L11.4586 29.2156C13.6806 25.6329 16.6442 21.5132 21.8242 18.1346C23.209 17.2438 24.7179 16.5642 26.3017 16.1181C26.2857 13.8866 26.8631 11.6912 27.9744 9.7581C28.1078 9.52245 28.2529 9.29375 28.4094 9.07288C27.7904 8.79319 27.2412 8.56665 26.9206 8.42401V7.12908L29.1621 8.11077C29.9472 7.24385 30.909 6.55642 31.9821 6.09509C33.0553 5.63377 34.2148 5.40933 35.3821 5.437C38.5966 5.437 40.6792 6.83541 41.8808 8.10238L44.1112 7.12628V8.42122L42.6726 9.0505C42.8447 9.28719 43.0029 9.53373 43.1465 9.78886C45.0228 13.1451 45.1427 20.4168 42.4969 25.1127C40.3613 28.9024 37.6347 30.9664 35.4434 32.625C34.5778 33.2485 33.7518 33.9257 32.9705 34.6527C31.4733 36.1266 31.2977 37.3768 31.2977 38.1123C31.6824 38.0144 32.0058 37.9194 32.2958 37.8522C32.6331 37.778 32.9828 37.7823 33.3182 37.8647C33.6536 37.9471 33.9657 38.1055 34.2306 38.3277C34.5037 38.5397 34.7272 38.809 34.8856 39.1167C35.0441 39.4245 35.1336 39.7632 35.1479 40.1093V40.6686H52.7984V1.19421H1.18494ZM10.993 40.6602L16.4657 32.2837L17.1432 31.5622C16.4546 31.4139 15.8106 31.2601 15.2251 31.1119L9.31463 40.6602H10.993ZM12.8776 29.1933C13.293 29.3247 13.8757 29.5009 14.5894 29.6939C15.836 27.8348 17.2489 26.0936 18.8104 24.4918C20.9897 22.2419 23.5867 20.4414 26.455 19.1918L26.4857 20.5119C23.9641 21.7031 21.6739 23.3349 19.7221 25.3308C18.6056 26.4739 17.5697 27.6934 16.6219 28.9807L16.5271 29.1093L15.7409 30.0071C16.2985 30.147 16.9118 30.2868 17.5614 30.4239C18.5433 29.0381 19.6461 27.7428 20.8568 26.553C22.5154 24.9116 24.4275 23.5497 26.5191 22.52L26.547 23.8709C24.8075 24.8127 23.206 25.9911 21.788 27.3725C21.0668 28.0701 20.3872 28.8098 19.7527 29.5876L19.6329 29.7386L18.7602 30.6588C19.4516 30.7846 20.1765 30.9021 20.9237 31C21.6279 30.1038 22.3986 29.2624 23.2293 28.4829C24.2139 27.5237 25.3429 26.7261 26.5749 26.1195L26.6056 27.5767C25.7131 28.0521 24.8833 28.6374 24.1354 29.3191C23.8566 29.568 23.5778 29.8337 23.299 30.1078L23.1652 30.2477L22.2424 31.1538C24.1497 31.3538 26.0727 31.3538 27.98 31.1538C32.162 30.67 35.6999 28.5752 37.2444 25.686C37.7262 24.8418 37.9913 23.8908 38.0162 22.9184C38.041 21.946 37.8246 20.9826 37.3866 20.1148C36.5976 18.5597 35.2287 17.5109 33.3162 16.9963C30.0989 16.1349 25.7329 16.9963 22.4431 19.1303C17.7872 22.1844 15.055 25.7504 12.8776 29.2044V29.1933ZM29.5078 9.55673C29.3218 9.81045 29.1505 10.0747 28.9948 10.3482C28.0509 12.0213 27.5337 13.9025 27.4893 15.8244C29.6444 15.3713 31.8107 15.3546 33.6452 15.8468C35.8755 16.4425 37.5316 17.7319 38.4655 19.5722C39.5361 21.6866 39.4831 24.0471 38.3122 26.2454C36.5865 29.4701 32.6889 31.8027 28.1389 32.3313C25.9692 32.5563 23.7813 32.5403 21.6151 32.2837L20.8484 33.3717C21.7412 33.6576 22.5216 34.2183 23.0788 34.9743C23.4381 35.4467 23.6943 35.9896 23.8307 36.5679C23.9671 37.1461 23.9807 37.7466 23.8706 38.3305C24.6205 38.5319 25.1753 38.6885 25.429 38.7584C25.5207 38.4012 25.7301 38.0855 26.0231 37.8626C26.3161 37.6397 26.6756 37.5227 27.0433 37.5306C27.8239 37.5306 28.5655 38.09 28.6937 38.7416C29.0645 38.6381 29.5636 38.4843 30.11 38.3361C30.018 37.3432 30.2076 35.721 32.148 33.808C32.9665 33.0453 33.8315 32.3345 34.738 31.6796C36.9517 30.0015 39.4608 28.1053 41.4737 24.5309C43.8937 20.2378 43.8101 13.394 42.1206 10.3706C41.9549 10.0779 41.7686 9.79749 41.563 9.53156L40.7043 9.90913C40.9046 10.3614 41.0045 10.8519 40.997 11.3467C40.9816 11.6804 40.8776 12.0038 40.6958 12.2836C40.5139 12.5634 40.2608 12.7894 39.9627 12.9381C39.6345 13.0863 39.275 13.1516 38.9159 13.1282C38.5567 13.1048 38.2087 12.9934 37.9024 12.8038C37.0465 12.2165 36.7063 11.1565 36.6534 11.0307L36.4275 10.4909L40.7043 8.61699C39.2499 7.29051 37.3414 6.57818 35.3765 6.62845C33.0402 6.62845 31.4204 7.52064 30.308 8.61699L34.5903 10.4909L34.3617 11.0307C34.3087 11.1565 33.9769 12.1634 33.2242 12.7451C32.9166 12.9616 32.5588 13.0956 32.185 13.1343C31.8112 13.173 31.4338 13.1151 31.0886 12.9661C30.7678 12.8143 30.4963 12.5746 30.3054 12.2747C30.1145 11.9749 30.012 11.627 30.0097 11.2712C30.0165 10.8013 30.119 10.3378 30.3108 9.90913L29.5022 9.55673H29.5078ZM36.6673 12.6053L35.5521 15.9251L34.4369 12.6053H36.6673ZM34.0689 40.1065V41.7846C33.7901 41.3706 33.0234 40.6239 32.1174 40.6435L27.7626 40.9427C27.5874 41.5452 27.3598 42.1311 27.0823 42.6935C26.7877 42.1287 26.5532 41.5344 26.3825 40.9203L22.0249 40.6099C21.0408 40.554 20.3717 41.2476 20.0734 41.8181V40.1065C20.0892 39.925 20.1428 39.7488 20.2306 39.5893C20.3185 39.4299 20.4387 39.2907 20.5836 39.1807C20.7223 39.0635 20.8856 38.9792 21.0613 38.9342C21.237 38.8892 21.4206 38.8845 21.5984 38.9206C22.5435 39.1332 26.2041 39.9275 26.1985 39.9191C26.1483 39.08 26.5888 38.6857 27.0739 38.6773C27.559 38.6689 27.9995 39.0437 27.9354 39.9498C27.9354 39.9498 31.136 39.2311 32.569 38.9206C32.7468 38.8851 32.9302 38.8901 33.1058 38.9351C33.2815 38.9801 33.4448 39.064 33.5838 39.1807C33.7284 39.2907 33.8483 39.43 33.9357 39.5895C34.0231 39.7489 34.0761 39.9251 34.0912 40.1065" fill="#E0640D"/>
<path d="M29.2569 49.0088C38.6077 48.0243 42.4635 49.6856 42.4635 49.6856C38.23 49.4391 33.9833 49.557 29.7699 50.038C27.8749 50.2391 25.9991 50.5926 24.1605 51.0952C25.1112 51.456 26.6502 51.951 27.9382 51.951C29.5162 51.951 30.1686 51.4196 30.1686 51.414L30.3916 51.2211L30.6704 51.291C30.7039 51.291 34.1888 52.1888 36.1097 52.1664C38.0306 52.144 38.6495 51.4868 38.6551 51.4784L38.8726 51.2267L39.182 51.2826C39.2155 51.2826 42.6419 51.9147 44.6855 51.8951C46.0599 51.8951 47.0357 51.6014 47.3619 51.1176C47.4419 50.98 47.4863 50.8245 47.4912 50.6653C47.4961 50.506 47.4612 50.3481 47.3898 50.2058C46.9577 49.0871 43.0629 47.3614 34.4453 47.5293C27.7347 47.6579 24.233 49.1794 23.2935 50.1946C25.2416 49.6008 27.244 49.2036 29.2708 49.0088H29.2569ZM28.6882 54.5605C28.309 54.0375 27.9605 53.4977 27.6957 53.0474H27.7124C25.6409 52.9579 23.3827 51.7497 22.9533 51.5063C22.6244 51.6266 22.2954 51.7553 21.9636 51.8951C21.3816 52.1472 20.822 52.4485 20.2908 52.7957L18.2584 52.7593C18.2584 52.7593 19.0753 51.9203 21.1189 51.0141C21.3112 50.7344 22.234 49.4311 24.7432 48.2928C23.9862 47.7901 23.091 47.5387 22.1839 47.574H13.2624L12.1249 47.4118C12.2671 47.5544 12.6295 47.8649 12.7661 48.0271C13.8813 49.35 14.7902 51.3637 15.7353 53.4473C17.383 57.0832 19.0809 60.831 21.7183 60.831C22.2828 60.8224 22.8273 60.6197 23.2606 60.2567C23.694 59.8938 23.99 59.3925 24.0992 58.8368C24.3131 57.9601 24.2145 57.036 23.8204 56.2246C23.6124 55.7429 23.2621 55.3367 22.8167 55.0611L29.2681 55.0779C29.0617 54.9323 28.8744 54.7612 28.7105 54.5689L28.6882 54.5605ZM35.1981 42.4167V43.9689L34.2251 42.7551C33.961 42.4675 33.6383 42.2402 33.279 42.0887C32.9197 41.9371 32.5321 41.8649 32.1424 41.8769H28.5181L27.0433 44.0388L25.6214 41.8685H22.0249C21.6354 41.8571 21.248 41.9295 20.8887 42.081C20.5295 42.2325 20.2067 42.4595 19.9423 42.7467L18.9582 43.9661V41.9524H1.18494V65.9492H19.2537C24.5676 65.9492 26.9987 71.1289 26.9987 71.1289C26.9987 71.1289 29.5831 65.9492 34.7436 65.9492H52.8124V41.9524H35.1618L35.1981 42.4167ZM48.4381 49.8227C48.5762 50.1295 48.6353 50.4662 48.6099 50.8019C48.5846 51.1376 48.4757 51.4616 48.2931 51.7441C47.7355 52.5607 46.5395 52.9859 44.7245 53.0026C42.9096 53.0194 40.13 52.5663 39.2796 52.4181C38.8754 52.7425 37.9637 53.2572 36.1515 53.2711C34.3394 53.2851 31.5124 52.6279 30.6732 52.4321C30.1481 52.7371 29.5648 52.9277 28.9614 52.9915C29.4215 53.7417 29.9558 54.4435 30.5561 55.0863L37.3671 55.1003C37.3671 55.1003 38.9757 56.1183 38.9646 58.7361C38.9485 59.6105 38.5871 60.4427 37.9598 61.0499C37.3325 61.6572 36.4906 61.9898 35.619 61.9749H21.958V61.9273C21.88 61.9273 21.8047 61.9273 21.7238 61.9273C18.3783 61.9273 16.5382 57.8468 14.7539 53.9004C14.5922 53.5452 13.8813 52.0098 13.4938 51.2378H6.0555C6.06944 50.4166 6.2173 49.6031 6.49321 48.8298C6.93929 47.6691 8.0015 46.4804 10.0228 46.4804H22.2006C23.7423 46.4804 24.9579 46.9223 25.9169 47.8285C27.9047 47.1125 30.6565 46.5364 34.4509 46.4441C43.7459 46.2119 47.7941 48.1529 48.4353 49.8254L48.4381 49.8227ZM11.8099 50.1051L12.9752 50.245C12.0385 48.5333 11.1826 47.5209 9.95865 47.5209C9.4654 47.4997 8.97749 47.6303 8.56038 47.8953C8.14327 48.1602 7.81692 48.5468 7.62513 49.0032C7.47715 49.3557 7.35144 49.7172 7.24875 50.0856L11.8099 50.1051ZM24.8213 56.1267C24.9227 56.2587 25.0158 56.397 25.1001 56.5406C25.3064 57.0385 25.3036 57.5531 25.298 58.2439C25.2982 59.0439 25.0291 59.8205 24.5341 60.4478C24.3833 60.6215 24.2223 60.7858 24.0518 60.94L24.8631 60.8589H35.5744C36.1603 60.868 36.7262 60.6454 37.1498 60.2393C37.5735 59.8332 37.8207 59.2761 37.8383 58.6886C37.9191 56.879 36.8095 56.1715 36.8095 56.1715L25.4597 56.1407L24.8213 56.1267Z" fill="#232661"/>
</svg>
