<svg xmlns="http://www.w3.org/2000/svg" viewBox="0 0 306 416">
  <defs>
    <style>
      .cls-2{fill:#2c2f69}
    </style>
  </defs>
  <path class="cls-2" d="M207.61 71.79h-12.59l6.3 18.7 6.29-18.7z"/>
  <path class="cls-2" d="M0 0v379.5h109.31c24.84 0 36.62 22.13 37.09 23.16l6.39 13.34 6.72-13.17c0-.25 13.07-23.33 37.22-23.33H306V0zm298.72 372.21h-102c-29.17 0-43.73 29.17-43.73 29.17s-13.71-29.17-43.69-29.17H7.28V237h100.36v11.41l5.48-6.86a15.54 15.54 0 0 1 5.36-3.74 15.36 15.36 0 0 1 6.42-1.19h20.35l8 12.22 8.1-12.22h20.52a15.24 15.24 0 0 1 11.73 4.93l5.49 6.86V237h99.67zm-126.89-302a10.6 10.6 0 0 0 4.43 3.88l-.13-.3a12.39 12.39 0 0 0 12-1.2 22.72 22.72 0 0 0 6.42-9.7l1.29-3-24.12-10.57a39.13 39.13 0 0 1 28.61-11.19 43.08 43.08 0 0 1 30 11.19l-24.17 10.55 1.28 3a21.49 21.49 0 0 0 7 10 12.57 12.57 0 0 0 11.65.77 10.6 10.6 0 0 0 5.82-9 18.76 18.76 0 0 0-1.37-8.11l4.8-2.1a35.7 35.7 0 0 1 3.17 4.72c9.51 17.15 10 55.75-3.64 79.72-11.4 20.16-25.7 30.84-38 40.27a152.68 152.68 0 0 0-14.6 12c-11 10.77-12 19.94-11.53 25.73-3.08.82-5.91 1.72-8 2.28a9.64 9.64 0 0 0-9.34-6.82 9.2 9.2 0 0 0-9.08 6.94c-1.42-.38-4.54-1.28-8.57-2.4a23.77 23.77 0 0 0-4.5-18.91 24.88 24.88 0 0 0-12.56-8.96l4.28-6.13a165.63 165.63 0 0 0 36.84.26c25.7-3 47.67-16.09 57.4-34.31a39.78 39.78 0 0 0 .51-37.79 41.51 41.51 0 0 0-27.2-21 77.18 77.18 0 0 0-34.74 0 65.81 65.81 0 0 1 8.57-30.83 43.56 43.56 0 0 1 3-4.29l4.54 2a19.76 19.76 0 0 0-1.72 7.68 10.65 10.65 0 0 0 1.66 5.64zm4.43-7.21a12.15 12.15 0 0 1 1.15-3.73l10.84 4.59s-3 7-8.57 5.1a5.06 5.06 0 0 1-3.25-6zM226 66.29a5.22 5.22 0 0 1-2.85 2.54c-6 2-8.83-5-8.83-5l10.84-4.59a31 31 0 0 1 1.2 3.26 5.27 5.27 0 0 1-.36 3.79zM114.19 194.66a19.57 19.57 0 0 1 11.31 7.25 18.9 18.9 0 0 1 3.39 13.51l-5.15-1.24a12.54 12.54 0 0 0-5.78.06 12.81 12.81 0 0 0-5.18 2.6 13.46 13.46 0 0 0-5.14 10V230H89.22zm-33.54 35.17h-9.38l32.86-49.92c3.68.68 7.49 1.33 11.43 1.89l-4 4.29zM114 226.7a7.21 7.21 0 0 1 .89-2.9 7.38 7.38 0 0 1 2-2.29 6.61 6.61 0 0 1 5.7-1.46c5.35 1.2 26 5.66 26 5.62-.29-4.68 2.19-6.95 4.93-7s5.23 2.06 4.84 7.16l26.17-5.79a6.69 6.69 0 0 1 5.74 1.46 7.35 7.35 0 0 1 2.87 5.19v9.52a14.38 14.38 0 0 0-11.14-6.42l-24.59 1.67a62.19 62.19 0 0 1-3.85 9.86 49.09 49.09 0 0 1-3.94-10l-24.55-1.76a12.09 12.09 0 0 0-11.07 6.79zm74.77-130.16h.17a34.31 34.31 0 0 1 23 17.54 32.95 32.95 0 0 1-.82 31.39c-8.56 16.3-28.74 28.09-52.25 30.79a154.19 154.19 0 0 1-32.43 0l5.23-5.1.77-.77a38.35 38.35 0 0 1 4.67-4.29 68.89 68.89 0 0 1 13.75-10v-8.19a75.11 75.11 0 0 0-18.94 13.3A132.92 132.92 0 0 0 119 175.36c-4.28-.55-8.31-1.2-12.25-1.93l4.93-5.14.68-.86A150.48 150.48 0 0 1 123.49 155a121.74 121.74 0 0 1 26.85-19.73v-7.59a120.91 120.91 0 0 0-31.95 22.69 159.33 159.33 0 0 0-18.59 21.82c-3.68-.77-7.15-1.59-10.28-2.36l4.28-5.06.56-.73a193.29 193.29 0 0 1 17.48-20.54A131.24 131.24 0 0 1 150 116.35v-7.46a135.47 135.47 0 0 0-43.22 30A203.78 203.78 0 0 0 83 168.24c-4-1.07-7.33-2.1-9.68-2.83a175.66 175.66 0 0 1 54.14-56.86C146 96.49 170.6 91.73 188.77 96.54zM86.52 176.05c3.34.81 7 1.72 10.84 2.53l-3.81 4.29L62.66 230H53.2zm112.57 53.78v-3.09a13.45 13.45 0 0 0-5.18-10 12.85 12.85 0 0 0-10.91-2.69c-1.62.34-3.47.9-5.61 1.46a26.2 26.2 0 0 1 9.32-19.51 150.65 150.65 0 0 1 13.88-11.45c12.38-9.35 27.75-21 39.83-42.32 14.91-26.47 14.22-67.38 3.64-86.34a40.08 40.08 0 0 0-2.65-4.28l8.09-3.52v-7.26L237 46.45a49.25 49.25 0 0 0-36.67-15 45.93 45.93 0 0 0-35.12 15.05L152.36 41v7.29l8.56 3.64c-.94 1.38-1.75 2.66-2.44 3.86a71 71 0 0 0-9.29 36 95.34 95.34 0 0 0-25.27 11.37 188.58 188.58 0 0 0-58.6 62.27l-2.18 3.52 3.86 1.31c.65.26 5.57 2 13.28 4.29L76 179.14l-31.28 50.69H7.28V7.51h291.27l.17 222.32z"/>
</svg>